<?xml version="1.0" encoding="utf-8"?>
<!-- Svg Vector Icons : http://www.onlinewebfonts.com/icon -->
<!DOCTYPE svg PUBLIC "-//W3C//DTD SVG 1.1//EN" "http://www.w3.org/Graphics/SVG/1.1/DTD/svg11.dtd">
<svg version="1.1" xmlns="http://www.w3.org/2000/svg" xmlns:xlink="http://www.w3.org/1999/xlink" x="0px" y="0px" viewBox="0 0 1000 1000" xml:space="preserve">
<metadata> Svg Vector Icons : http://www.onlinewebfonts.com/icon </metadata>
<g><path d="M990,500.3c0,269.7-219.6,490-489.3,490C229,991,9.3,770,10,498.3C10.7,228.6,231,9.7,500.7,9.7C770.3,10.3,990,230.7,990,500.3L990,500.3z M501.4,30.6C243.2,30,31.6,239.5,31,497.6c-0.7,260.2,208.8,471.7,468.4,472.4c258.8,0.7,469.7-208.8,471.1-466.3C970.4,243.5,760.2,31.3,501.4,30.6L501.4,30.6z"/><path d="M733.2,505.8c-2,35.8-4.1,68.3-6.8,100.7c-4.7,70.3-59.5,127.1-129.1,133.1c-68.3,6.1-137.2,6.1-205.5,0c-74.3-6.1-129.1-63.5-133.1-137.2c-2.7-54.7-2-110.2-6.8-165.6c-8.8-101.4,86.5-162.9,156.1-165.6c56.1-2,112.9-2,169,0c90.6,3.4,157.5,75.7,156.1,164.9C733.2,461.1,733.2,484.8,733.2,505.8L733.2,505.8z M612.9,543.6c31.1,0,58.1-27.7,57.5-58.1c-0.7-29.1-27.7-55.4-56.8-55.4c-28.4-0.7-56.8,26.4-57.5,54.7C556.1,516.6,582.5,543.6,612.9,543.6L612.9,543.6z M377,430.7c-29.7-2.7-59.5,23-61.5,54.1c-2,29.1,22.3,56.8,52,59.5c31.1,2.7,59.5-21.6,61.5-53.4C430.4,462.5,404.7,432.8,377,430.7L377,430.7z"/><path d="M769.7,607.1c0-61.5-0.7-112.9,0-164.9c2.7-110.8-79.1-201.4-190.6-207.5c-57.5-2.7-114.9-2.7-172.3,0c-89.9,4.7-201.4,83.1-191.9,203.4c4.1,52.7,0.7,106.1,0.7,169.6c-18.9-60.8-22.3-113.5-21-166.9c6.8-208.8,204.1-343.3,401.5-275.1c118.3,40.6,202.1,168.3,194,294.7C787.2,507.1,789.3,553.7,769.7,607.1L769.7,607.1z"/><path d="M828.5,420.6c16.2,33.1,16.2,66.9,0,100.7C828.5,487.5,828.5,454.4,828.5,420.6L828.5,420.6z"/><path d="M158,533.5c-18.2-27-11.5-57.5-13.5-93.9C167.5,474,155.3,504.4,158,533.5z"/></g>
</svg>